<mxfile host="Electron" agent="Mozilla/5.0 (X11; Linux x86_64) AppleWebKit/537.36 (KHTML, like Gecko) draw.io/24.7.17 Chrome/128.0.6613.36 Electron/32.0.1 Safari/537.36" version="24.7.17">
  <diagram name="第 1 页" id="bty1wimENaI5j6K0uMYl">
    <mxGraphModel dx="1987" dy="1556" grid="0" gridSize="10" guides="1" tooltips="1" connect="1" arrows="1" fold="1" page="0" pageScale="1" pageWidth="1654" pageHeight="2336" math="0" shadow="0">
      <root>
        <mxCell id="0" />
        <mxCell id="1" parent="0" />
        <mxCell id="iCZ_zLHePpMVhIJQ2WpE-1" value="" style="rounded=0;whiteSpace=wrap;html=1;fillColor=#f5f5f5;fontColor=#333333;strokeColor=#666666;" vertex="1" parent="1">
          <mxGeometry x="636" y="774" width="1831" height="1413" as="geometry" />
        </mxCell>
        <mxCell id="iCZ_zLHePpMVhIJQ2WpE-2" value="&lt;font style=&quot;font-size: 20px;&quot;&gt;Input Dffs&lt;/font&gt;" style="rounded=0;whiteSpace=wrap;html=1;" vertex="1" parent="1">
          <mxGeometry x="689" y="2080" width="1725" height="62" as="geometry" />
        </mxCell>
        <mxCell id="iCZ_zLHePpMVhIJQ2WpE-3" value="" style="rounded=0;whiteSpace=wrap;html=1;" vertex="1" parent="1">
          <mxGeometry x="691" y="834" width="843" height="980" as="geometry" />
        </mxCell>
        <mxCell id="iCZ_zLHePpMVhIJQ2WpE-8" value="&lt;font style=&quot;font-size: 20px;&quot;&gt;And&lt;br&gt;Array&lt;/font&gt;" style="rounded=0;whiteSpace=wrap;html=1;" vertex="1" parent="1">
          <mxGeometry x="712" y="938" width="81" height="519" as="geometry" />
        </mxCell>
        <mxCell id="iCZ_zLHePpMVhIJQ2WpE-9" value="" style="rounded=0;whiteSpace=wrap;html=1;" vertex="1" parent="1">
          <mxGeometry x="813" y="854" width="701" height="940.5" as="geometry" />
        </mxCell>
        <mxCell id="iCZ_zLHePpMVhIJQ2WpE-10" value="&lt;font style=&quot;font-size: 20px;&quot;&gt;Control&lt;br&gt;Logic&lt;/font&gt;" style="rounded=0;whiteSpace=wrap;html=1;" vertex="1" parent="1">
          <mxGeometry x="712" y="1475" width="81" height="248" as="geometry" />
        </mxCell>
        <mxCell id="iCZ_zLHePpMVhIJQ2WpE-11" value="&lt;font style=&quot;font-size: 20px;&quot;&gt;Precharge Array&lt;/font&gt;" style="rounded=0;whiteSpace=wrap;html=1;" vertex="1" parent="1">
          <mxGeometry x="835" y="875" width="598" height="47" as="geometry" />
        </mxCell>
        <mxCell id="iCZ_zLHePpMVhIJQ2WpE-12" value="" style="rounded=0;whiteSpace=wrap;html=1;" vertex="1" parent="1">
          <mxGeometry x="1459" y="875" width="27" height="46" as="geometry" />
        </mxCell>
        <mxCell id="iCZ_zLHePpMVhIJQ2WpE-15" value="&lt;font style=&quot;font-size: 20px;&quot;&gt;Bitcell Array&lt;/font&gt;" style="rounded=0;whiteSpace=wrap;html=1;" vertex="1" parent="1">
          <mxGeometry x="835" y="938" width="599" height="518" as="geometry" />
        </mxCell>
        <mxCell id="iCZ_zLHePpMVhIJQ2WpE-16" value="" style="rounded=0;whiteSpace=wrap;html=1;" vertex="1" parent="1">
          <mxGeometry x="1459" y="939" width="27" height="518" as="geometry" />
        </mxCell>
        <mxCell id="iCZ_zLHePpMVhIJQ2WpE-17" value="" style="rounded=0;whiteSpace=wrap;html=1;" vertex="1" parent="1">
          <mxGeometry x="835" y="1475" width="599" height="302" as="geometry" />
        </mxCell>
        <mxCell id="iCZ_zLHePpMVhIJQ2WpE-18" value="" style="rounded=0;whiteSpace=wrap;html=1;" vertex="1" parent="1">
          <mxGeometry x="1459" y="1475" width="27" height="72" as="geometry" />
        </mxCell>
        <mxCell id="iCZ_zLHePpMVhIJQ2WpE-19" value="&lt;font style=&quot;font-size: 20px;&quot;&gt;Column Mux Array&lt;/font&gt;" style="rounded=0;whiteSpace=wrap;html=1;" vertex="1" parent="1">
          <mxGeometry x="850" y="1491" width="569" height="68" as="geometry" />
        </mxCell>
        <mxCell id="iCZ_zLHePpMVhIJQ2WpE-20" value="&lt;font style=&quot;font-size: 20px;&quot;&gt;Sense Amp Array&lt;/font&gt;" style="rounded=0;whiteSpace=wrap;html=1;" vertex="1" parent="1">
          <mxGeometry x="849.5" y="1586" width="569" height="74" as="geometry" />
        </mxCell>
        <mxCell id="iCZ_zLHePpMVhIJQ2WpE-22" value="&lt;font style=&quot;font-size: 20px;&quot;&gt;Write Driver Array&lt;/font&gt;" style="rounded=0;whiteSpace=wrap;html=1;" vertex="1" parent="1">
          <mxGeometry x="850" y="1687" width="569" height="72" as="geometry" />
        </mxCell>
        <mxCell id="iCZ_zLHePpMVhIJQ2WpE-23" value="&lt;font style=&quot;font-size: 20px;&quot;&gt;Core0&lt;/font&gt;" style="text;html=1;align=center;verticalAlign=middle;whiteSpace=wrap;rounded=0;fontSize=16;" vertex="1" parent="1">
          <mxGeometry x="717" y="860" width="69" height="30" as="geometry" />
        </mxCell>
        <mxCell id="iCZ_zLHePpMVhIJQ2WpE-25" value="" style="rounded=0;whiteSpace=wrap;html=1;" vertex="1" parent="1">
          <mxGeometry x="1562" y="834" width="843" height="980" as="geometry" />
        </mxCell>
        <mxCell id="iCZ_zLHePpMVhIJQ2WpE-26" value="&lt;font style=&quot;font-size: 20px;&quot;&gt;Core1&lt;/font&gt;" style="text;html=1;align=center;verticalAlign=middle;whiteSpace=wrap;rounded=0;fontSize=16;" vertex="1" parent="1">
          <mxGeometry x="1593" y="862" width="69" height="30" as="geometry" />
        </mxCell>
        <mxCell id="iCZ_zLHePpMVhIJQ2WpE-27" value="&lt;font style=&quot;font-size: 20px;&quot;&gt;Core Select&amp;nbsp;&lt;/font&gt;" style="rounded=0;whiteSpace=wrap;html=1;" vertex="1" parent="1">
          <mxGeometry x="689" y="1899" width="1722" height="67" as="geometry" />
        </mxCell>
        <mxCell id="iCZ_zLHePpMVhIJQ2WpE-28" value="&lt;font style=&quot;font-size: 20px;&quot;&gt;.......&lt;/font&gt;" style="text;html=1;align=center;verticalAlign=middle;whiteSpace=wrap;rounded=0;fontSize=16;" vertex="1" parent="1">
          <mxGeometry x="1519" y="1841" width="60" height="30" as="geometry" />
        </mxCell>
        <mxCell id="iCZ_zLHePpMVhIJQ2WpE-29" value="&lt;font style=&quot;font-size: 20px;&quot;&gt;Row Decoder&lt;/font&gt;" style="rounded=0;whiteSpace=wrap;html=1;" vertex="1" parent="1">
          <mxGeometry x="691" y="1981" width="845" height="81" as="geometry" />
        </mxCell>
        <mxCell id="iCZ_zLHePpMVhIJQ2WpE-30" value="&lt;font style=&quot;font-size: 20px;&quot;&gt;Column Decoder&lt;/font&gt;" style="rounded=0;whiteSpace=wrap;html=1;" vertex="1" parent="1">
          <mxGeometry x="1566" y="1981" width="845" height="81" as="geometry" />
        </mxCell>
      </root>
    </mxGraphModel>
  </diagram>
</mxfile>
